# xmcd
#
# Track frame offsets: 
#        150
#        16785
#        31525
#        51965
#        70749
#        95464
#        112035
#        132473
#        148436
#        172042
#        190229
#        212826
#        224224
#        249820
#
# Disc length: 3709 seconds
#
# Revision: 0
# Processed by: cddbd v1.5.2PL0 Copyright (c) Steve Scherf et al.
# Submitted via: ExactAudioCopy v1.3
#
DISCID=d40e7b0e
DTITLE=Various Artist - Soul Bag Sampler, Jun 2013
DYEAR=2013
DGENRE=Blues
TTITLE0=Charles Bradley - Strictly reserved for you
TTITLE1=Ben Harper with Charlie Musselwhite - I don't believe a word y
TTITLE1=ou say
TTITLE2=Guy Davis - Black coffee
TTITLE3=Big Daddy Wilson - I'm your man
TTITLE4=José James - It's all over your body
TTITLE5=Joy Denalane - Roses
TTITLE6=Boukou Groove - Stay broke
TTITLE7=Alice Russell - Hearbreaker pt. 2
TTITLE8=Julian Fauth - Everybody ought to treat a stranger right
TTITLE9=Lady - Karma
TTITLE10=Jesse Dee - Fussin' and fightin'
TTITLE11=Corey Harris - Underground
TTITLE12=Willie Buck - Strange woman
TTITLE13=Lenny Williams - Where did our love go
EXTD=
EXTT0=
EXTT1=
EXTT2=
EXTT3=
EXTT4=
EXTT5=
EXTT6=
EXTT7=
EXTT8=
EXTT9=
EXTT10=
EXTT11=
EXTT12=
EXTT13=
PLAYORDER=
